PathFileType	4	(X/Y/Z)	Patient4_TMGait_0pt5_01_left_10.trc.trc
DataRate	CameraRate	NumFrames	NumMarkers	Units	OrigDataRate	OrigDataStartFrame	OrigNumFrames
71.794871794872	71.794871794872	5	33	mm	71.794871794872	106	       141
Frame#	Time	L.ASIS			Sacral			L.Shoulder			Chest			R.Shoulder			Neck			R.ASIS			R.Thigh.Superior			R.Thigh.Lateral			R.Thigh.Inferior			R.Patella			L.Thigh.Superior			L.Thigh.Lateral			L.Thigh.Inferior			L.Patella			L.Shank.Superior			L.Shank.Lateral			L.Shank.Inferior			R.Shank.Superior			R.Shank.Lateral			R.Shank.Inferior			R.Heel			R.Midfoot.Superior			R.Midfoot.Lateral			R.Toe			L.Heel			L.Midfoot.Lateral			L.Midfoot.Superior			L.Toe			L.Elbow			L.Wrist			R.Elbow			R.Wrist			
		X1	Y1	Z1	X2	Y2	Z2	X3	Y3	Z3	X4	Y4	Z4	X5	Y5	Z5	X6	Y6	Z6	X7	Y7	Z7	X8	Y8	Z8	X9	Y9	Z9	X10	Y10	Z10	X11	Y11	Z11	X12	Y12	Z12	X13	Y13	Z13	X14	Y14	Z14	X15	Y15	Z15	X16	Y16	Z16	X17	Y17	Z17	X18	Y18	Z18	X19	Y19	Z19	X20	Y20	Z20	X21	Y21	Z21	X22	Y22	Z22	X23	Y23	Z23	X24	Y24	Z24	X25	Y25	Z25	X26	Y26	Z26	X27	Y27	Z27	X28	Y28	Z28	X29	Y29	Z29	X30	Y30	Z30	X31	Y31	Z31	X32	Y32	Z32	X33	Y33	Z33	

106	14.852500000000	756.892172744800	975.570731867150	355.399910596216	555.016551726685	1006.832051539789	531.686955535749	700.174597129381	1454.590254707304	376.575016939692	821.165174045575	1372.568778008649	518.273436091735	754.939789392981	1424.505104031054	707.471389641076	715.603554303800	1501.249116089247	532.901483539440	793.704854191851	944.691231550315	626.991476575652	818.605210344602	741.338866889060	594.099955809237	731.539634930005	634.832822395905	654.873986000702	801.245097144239	581.265593531983	572.843635395874	794.440497789992	495.080336081748	577.444148113773	833.316140969655	783.244351243607	362.742976047351	772.279716662723	660.014932856645	287.355485188794	878.365150519550	594.839764435611	335.351293687157	901.546596898467	524.225812541728	324.264098758682	874.193835039097	451.094455598623	316.887017687180	781.900342672173	335.362128881468	272.676212672624	856.276586824472	222.348787811179	318.147759522908	767.293920120593	405.634862448107	580.960151026229	692.946235318330	299.746336792176	635.139062648603	739.841028177233	207.681151801963	570.643149630211	606.936865570888	41.988191562454	528.330994524720	779.673425587786	98.301941076261	567.586275845948	689.766598988664	35.890978380096	604.142068503656	897.705654469399	46.336180432224	594.391396868487	751.813361037717	48.430942226739	362.986153511975	814.138426121993	55.515558558768	273.634663807139	892.188115873776	127.730820176622	288.635600116873	1018.282158247260	93.920149147571	241.650300408022	617.592859103655	1114.426436907172	245.426167578344	676.268208766034	860.599502215889	218.588066335406	841.492234320677	1082.427065096310	802.322705899255	1074.271491966624	970.679794447421	776.510566828677	
107	14.866428571429	755.420479289445	975.663811586942	355.578032761041	553.855542391471	1007.258483214457	532.423962642789	699.183712844513	1454.786929656292	377.520159360224	820.575551706868	1372.407340473435	518.619640779624	755.143145900633	1424.184290546354	708.119923076496	715.189758413681	1501.178850268294	533.850062874682	792.802778945615	944.329314629444	627.075368849906	815.943972668883	740.591385107035	594.252261848852	727.927948516061	634.725808004954	655.122355414989	796.863235899950	580.610474355572	573.026951451842	789.305861018657	494.580836156261	577.640428661399	831.159169063117	782.939405997305	364.208195279521	771.225866015374	660.102916606123	287.746717589777	876.587173932463	594.892618160121	337.627892679021	900.990562257617	526.182942422858	326.656749663349	876.951171713276	453.727833831797	318.077092246790	791.360459198023	333.704936656233	271.646589840668	870.986366996286	224.204365561504	317.261136892974	761.674851138318	405.276703585922	581.124236422629	686.742146973241	299.715379004866	635.186447315702	733.262186446814	207.444777504016	570.669807077291	599.893564576391	41.956488681038	528.281761345324	772.526347939285	98.218248687772	567.471223564358	682.711075321366	35.892785974459	604.110798386916	890.628862518130	46.318155396543	594.429042480769	774.442226115733	45.431138973298	359.503584014546	838.389474128032	55.011316789785	271.413021992484	912.916107238571	130.644677151503	287.831350819850	1041.466441401910	102.230767111760	243.556608596132	612.217739884027	1115.811622339658	247.077887678094	659.345893316262	859.838661474248	220.513734379474	847.506411092367	1084.018310077961	802.010564537890	1086.055829956757	987.011035002003	772.549107963120	
108	14.880357142857	754.022190958810	975.677821571128	355.697257119993	552.825430311424	1007.658349149956	533.069397719689	698.356260673548	1454.920078835812	378.196942324280	820.059140876219	1372.200404341459	518.783139221552	755.342002175919	1423.910760996774	708.525293177673	714.863271040870	1501.093449649826	534.515958477888	791.848632779449	943.987329025348	627.148817838535	813.193796176017	739.830447045853	594.479672423459	724.167748870673	634.635927491270	655.358074392336	792.406874253657	579.950451202707	573.250246241174	784.101251555464	494.076773588840	577.863448662295	829.126255878540	782.646822894221	365.629805853106	770.230632455721	660.097558867417	288.275796468058	875.034657828205	594.918575658524	339.685233475728	900.458793003715	527.928876882914	329.059639360537	879.406081940064	456.229637478225	319.451702596366	800.120379571955	332.621129898750	271.100955698334	884.313593240667	226.590772286035	317.015854857372	755.977184505073	404.944652709146	581.308670599678	680.464168665419	299.720274632543	635.259108257481	726.640252394620	207.239700404925	570.728750278862	592.840385738939	41.937785943682	528.246301236254	765.353083493337	98.117700180598	567.345964943481	675.647382029523	35.890542503489	604.084199602406	883.547167514034	46.295213077464	594.472667087065	794.985818566888	44.040695277150	357.061135559454	860.479904054839	55.573977295083	270.246270083589	931.782250917753	134.035487532331	287.867056611905	1062.342979069800	110.227678133956	246.435005056897	607.177940372475	1117.168218669480	248.458984221397	643.346075083483	859.612295471856	222.436324745147	853.048519523556	1085.660614633408	801.392340764786	1096.316355040986	1003.656657719570	768.164169815962	
109	14.894285714286	752.723844672811	975.615886615556	355.761847701827	551.957572416265	1008.001674126311	533.621486361939	697.688359354917	1454.980229507216	378.611776595734	819.614405005571	1371.942065269977	518.773801644812	755.531749367331	1423.680918672311	708.695519595926	714.620239328685	1500.987620214575	534.906766099509	790.847534322005	943.656268871044	627.219130111898	810.378308091162	739.063603159591	594.741577242468	720.310158733852	634.557420003578	655.570123191266	787.925451536456	579.286161570644	573.496693324261	778.885642335297	493.561206218905	578.099152983932	827.322208975771	782.423832285918	366.925710050437	769.335997389582	659.998167742770	288.957780303307	873.785733500458	594.944632412735	341.484601270300	900.034194814719	529.475881217933	331.411678715114	881.600652456133	458.536466249589	320.966310325149	808.051239144720	332.005025578226	271.046486006576	896.125728914141	229.261849041146	317.358330736504	750.251921882109	404.627971020391	581.497067740799	674.162597521845	299.758098567347	635.350195944299	720.005508024180	207.060123199800	570.807607899950	585.782314451953	41.932528696245	528.222246588761	758.169148618282	98.003907174073	567.215792553088	668.580200713419	35.886540920623	604.060780907826	876.467990731695	46.257794110916	594.519748931696	813.161483823400	43.908438504007	355.674613417745	880.076462431320	56.860951593377	270.075947241010	948.562832381059	137.585951726877	288.627327878223	1080.715778921143	117.541909177531	249.992336743290	602.400520784596	1118.497364396991	249.570424227494	628.362860537978	859.851201448390	224.335710850402	858.169114809111	1087.344139403995	800.495750711471	1105.073195484492	1020.447995974500	763.427247928405	
110	14.908214285714	751.555032812775	975.473387895672	355.773877795996	551.269826112384	1008.259197491703	534.066229115580	697.172144319793	1454.955046413681	378.774047358873	819.236822633966	1371.623473323363	518.603804934707	755.702174865667	1423.482857574704	708.642294577918	714.450258114713	1500.851023386894	535.034586030761	789.810390575153	943.325089990204	627.289921162165	807.535675626645	738.295878011922	595.003101753985	716.419448310729	634.481780369187	655.747922121073	783.480609002077	578.615130654471	573.751086434754	773.728785880828	493.023342150878	578.334129031588	825.833674106300	782.297266462929	368.040510142486	768.585990749547	659.794460025212	289.788915353400	872.888453059560	594.974165951891	343.031339843208	899.778855357362	530.815072605072	333.670052919131	883.567525593190	460.570799510461	322.586054957591	815.040897600283	331.722521785939	271.468709913549	906.310544058238	231.955806154201	318.230447155725	744.559909826203	404.312517518488	581.674977221543	667.894158491028	299.822878868079	635.452104758051	713.391403148396	206.896688591600	570.894043235103	578.724547716556	41.941146999467	528.207115452678	750.994607076554	97.885200593860	567.092897908339	661.514382752034	35.882541002578	604.039569695003	869.398393014811	46.194793245068	594.567619110639	828.732087557120	44.651756156340	355.317340062114	896.903242177751	58.512511595150	270.814488998453	963.066895493829	140.973524394395	289.995821311634	1096.431946084990	123.827047909798	253.960625931459	597.820115104248	1119.798872591642	250.415437665424	614.471379490655	860.472536957124	226.190695647757	862.917867215382	1089.057236527239	799.356819389288	1112.375197813759	1037.205460940035	758.420320319695	
